# xmcd
#
# Track frame offsets:
#	150
#	16049
#	30905
#	46714
#	65332
#	84505
#	102825
#	123255
#	134463
#	146929
#	160787
#	174204
#	193095
#	210227
#	223509
#	239293
#	253234
#	266139
#
# Disc length: 3707 seconds
#
# Revision: 1
# Processed by: cddbd v1.5.2PL0 Copyright (c) Steve Scherf et al.
# Submitted via: audiograbber 1.81.03
#
DISCID=f10e7912
DTITLE=Various Artist - Beaut Ute Anthems 2011 CD1
DYEAR=2011
DGENRE=Country
TTITLE0=Jasmine Rae - Hunky Country Boys
TTITLE1=Dean Brody - People Know You By Your First Name
TTITLE2=Easton Corbin - Roll With It
TTITLE3=Markus Meier - My Patch Of Dirt
TTITLE4=Blake Shelton - Kiss My Country Ass
TTITLE5=Tim McGraw - Southern Voice
TTITLE6=Jamey Johnson - Playing The Part
TTITLE7=Catherine Britt - Under My Thumb
TTITLE8=Shane Nicholson - Bad Machines
TTITLE9=Doc Walker - Speed Of Life
TTITLE10=Peter McWhirter - Girls In The Summertime
TTITLE11=Emerson Drive - The Extra Mile
TTITLE12=McAlister Kemp - Hell Yeah 
TTITLE13=Shea Fisher - Easy Come, Easy Go
TTITLE14=Rose Carleo - That Season Again
TTITLE15=Ben Gunn - Every Minute I Wait
TTITLE16=Wolverines, The - Good Times and Good Ol'Boys
TTITLE17=Luke Dickens - Underdog
EXTD=Current Freedb entry backwards
EXTT0=
EXTT1=
EXTT2=
EXTT3=
EXTT4=
EXTT5=
EXTT6=
EXTT7=
EXTT8=
EXTT9=
EXTT10=
EXTT11=
EXTT12=
EXTT13=
EXTT14=
EXTT15=
EXTT16=
EXTT17=
PLAYORDER=
